<svg id="Calque_1" data-name="Calque 1" xmlns="http://www.w3.org/2000/svg" version="1.1" viewBox="0 0 200 50">
  <defs>
    <style> .cls-1 { fill: #003c1c; stroke-width: 0px; } </style>
  </defs>
  <g>
    <polygon class="cls-1" points="57.38 35.18 64.51 28.06 61.45 25 65.02 25 69.77 25 69.77 29.75 69.77 29.96 69.77 33.32 66.71 30.27 57.38 39.6 45.16 27.38 49.58 27.38 57.38 35.18"/>
    <polygon class="cls-1" points="48.05 19.73 57.38 10.4 69.6 22.62 65.19 22.62 57.38 14.82 50.26 21.94 53.32 25 45 25 45 20.25 45 16.68 48.05 19.73"/>
  </g>
  <g>
    <path class="cls-1" d="M81.57,25.48v4.33h-3.39s0-13.04,0-13.04h5.4c.84,0,1.53.1,2.04.31.54.2,1.02.54,1.44,1.02.69.78,1.04,1.78,1.04,3,0,1.42-.38,2.5-1.14,3.25s-1.85,1.12-3.27,1.12h-2.13ZM81.57,22.76h1.13c.65,0,1.12-.13,1.41-.39.3-.26.44-.67.44-1.23,0-1.09-.62-1.64-1.85-1.64h-1.14v3.26Z"/>
    <path class="cls-1" d="M89.61,20.95h3.13v1.44c.68-1.05,1.65-1.57,2.91-1.57.08,0,.17,0,.27,0s.21.01.34.03v2.99c-.42-.21-.86-.31-1.34-.31-1.45,0-2.18.83-2.18,2.48v3.8h-3.13v-8.87Z"/>
    <path class="cls-1" d="M97.3,25.3c0-1.35.5-2.46,1.51-3.35,1.01-.89,2.28-1.33,3.82-1.33,1.57,0,2.85.45,3.84,1.34,1,.89,1.49,2.03,1.49,3.43,0,1.4-.5,2.54-1.5,3.43-1,.88-2.29,1.33-3.88,1.33s-2.83-.45-3.82-1.34c-.98-.9-1.47-2.07-1.47-3.5ZM100.61,25.34c0,.58.2,1.07.59,1.46.4.4.88.6,1.44.6s1.03-.2,1.43-.59c.39-.39.59-.88.59-1.45,0-.56-.2-1.04-.59-1.44-.4-.4-.88-.6-1.44-.6s-1.03.2-1.43.6c-.39.39-.59.87-.59,1.42Z"/>
    <path class="cls-1" d="M113.12,25l-3.61-4.05h4.08l1.53,1.83,1.56-1.83h4.07s-3.67,4.05-3.67,4.05l4.44,4.81h-4.15l-2.28-2.63-2.27,2.63h-4.14l4.43-4.81Z"/>
    <path class="cls-1" d="M122.39,17.52c0-.47.17-.88.52-1.22.34-.34.76-.52,1.24-.52s.91.17,1.25.52c.34.34.52.76.52,1.25s-.17.9-.52,1.24c-.34.34-.76.52-1.24.52s-.91-.17-1.25-.52c-.34-.34-.52-.77-.52-1.27ZM125.72,20.95v8.87h-3.13v-8.87h3.13Z"/>
    <path class="cls-1" d="M127.86,20.95h3.13v1.09c.86-.82,1.81-1.23,2.87-1.23,1.32,0,2.33.55,3.01,1.66.7-1.11,1.7-1.67,3.01-1.67.99,0,1.77.33,2.34.98.43.5.65,1.26.65,2.29v5.76s-3.13,0-3.13,0v-4.38c0-.77-.08-1.29-.24-1.57-.24-.41-.59-.62-1.07-.62-1,0-1.5.73-1.5,2.19v4.38s-3.13,0-3.13,0v-4.38c0-.78-.06-1.3-.19-1.55-.25-.47-.64-.71-1.17-.71-.49,0-.87.21-1.15.62-.19.28-.29.82-.29,1.64v4.38s-3.13,0-3.13,0v-8.87Z"/>
    <path class="cls-1" d="M151.87,20.95h3.13v8.87s-3.13,0-3.13,0v-.98c-.68.84-1.58,1.26-2.73,1.26-1.27,0-2.33-.45-3.19-1.36-.86-.91-1.29-2.04-1.29-3.38s.43-2.43,1.28-3.34c.85-.91,1.91-1.36,3.17-1.36,1.1,0,2.02.39,2.76,1.16v-.87ZM147.92,25.35c0,.57.2,1.06.59,1.45.39.39.87.59,1.44.59s1.03-.2,1.43-.59c.39-.39.59-.87.59-1.43,0-.56-.2-1.04-.59-1.43-.39-.39-.87-.59-1.44-.59s-1.03.2-1.43.59c-.39.39-.59.86-.59,1.4Z"/>
  </g>
</svg>
