<?xml version="1.0" encoding="UTF-8" standalone="no"?>
<svg
   xmlns:svg="http://www.w3.org/2000/svg"
   xmlns="http://www.w3.org/2000/svg"
   version="1.1"
   width="771.05249"
   height="339.2674"
   id="svg3746">
  <defs
     id="defs3748" />
  <g
     transform="translate(-31.616607,-354.15705)"
     id="layer1">
    <path
       d="m 369.06427,638.79155 c 4.05938,0 8.13523,-0.91398 11.40415,-3.21127 5.28626,-3.76296 6.48843,-9.53503 6.48843,-12.68043 0.0247,-6.04379 -2.21496,-10.89365 -10.89364,-17.71967 l -2.05852,-1.60564 c -7.02364,-5.54151 -8.66221,-7.90468 -8.68691,-11.80762 0.0329,-5.0063 3.57357,-7.83058 8.36579,-7.87175 6.52136,0.0329 8.19287,2.89015 8.58811,3.54888 0.33759,0.61755 0.81517,2.65959 0.88104,3.41712 0,0.49405 0.18938,1.50683 1.20217,1.53154 1.1857,-0.22232 1.10336,-1.21864 1.15277,-2.322 0,-4.9816 0.27995,-7.29537 0.29642,-7.77294 0.008,-0.23879 -0.0741,-0.65049 -0.40347,-0.90575 -0.33759,-0.22232 -0.64225,-0.23879 -0.97985,-0.23879 -0.51874,0 -1.04572,-0.0659 -2.42904,-0.34583 -1.84443,-0.45287 -4.03468,-0.74929 -6.9166,-0.74929 -9.52679,0.008 -15.75173,5.62385 -15.7682,13.82496 -0.0165,5.16275 1.9103,9.97966 9.73264,16.39398 l 3.30186,2.709 c 6.26611,5.22862 8.14347,7.87175 8.15994,12.70514 -0.0329,4.38874 -3.14541,9.08215 -9.81499,9.09038 -4.75927,-0.0247 -9.18096,-1.9103 -10.19374,-6.95777 -0.21409,-0.94691 -0.21409,-1.91853 -0.21409,-2.57725 -0.008,-0.3129 0.008,-0.57638 -0.17291,-0.93045 -0.18939,-0.37876 -0.6752,-0.53521 -0.95515,-0.51051 -1.00456,0.0741 -1.19394,0.99632 -1.23511,1.74562 -0.0741,1.16923 -0.37053,4.13349 -0.37053,7.83058 -0.0988,1.84442 0.24702,2.84074 1.44919,3.34302 l 0.29642,-0.57638 -0.28819,0.57638 c 3.12071,1.5233 6.57077,2.06674 10.06201,2.06674 z m 97.84516,-2.06674 0.29643,-0.57638 -0.27173,0.57638 c 3.10424,1.5233 6.57901,2.06674 10.07024,2.06674 4.02645,0 8.11054,-0.91398 11.39592,-3.21127 5.27802,-3.75473 6.49666,-9.53503 6.49666,-12.68043 0.0165,-6.04379 -2.23966,-10.89365 -10.91834,-17.71967 l -2.05028,-1.60564 c -7.02364,-5.54151 -8.66222,-7.90468 -8.67045,-11.80762 0.0247,-5.0063 3.54887,-7.83058 8.35756,-7.87175 6.52136,0.0329 8.18464,2.89015 8.57164,3.54888 0.3623,0.61755 0.8234,2.64312 0.87281,3.42536 0.008,0.48581 0.22232,1.49859 1.22687,1.5233 1.19394,-0.22232 1.08689,-1.21864 1.1363,-2.322 0,-4.9816 0.29642,-7.29537 0.29642,-7.77294 0,-0.23879 -0.0576,-0.65049 -0.40347,-0.89751 -0.32112,-0.23056 -0.61755,-0.24703 -0.96338,-0.24703 -0.51051,0 -1.04572,-0.0659 -2.42904,-0.34583 -1.86913,-0.45287 -4.04292,-0.74929 -6.92483,-0.74929 -9.5268,0.008 -15.75173,5.62385 -15.77644,13.82496 -0.0165,5.16275 1.91854,9.97966 9.73265,16.39398 l 3.30185,2.709 c 6.26611,5.22862 8.14347,7.87175 8.16817,12.70514 -0.0247,4.38874 -3.1454,9.08215 -9.81498,9.09038 -4.75928,-0.0247 -9.17273,-1.9103 -10.20198,-6.95777 -0.19762,-0.93044 -0.19762,-1.91853 -0.19762,-2.57725 -0.008,-0.3129 0,-0.59285 -0.17292,-0.94692 -0.20585,-0.37876 -0.68342,-0.51874 -0.99631,-0.49404 -1.00456,0.0823 -1.14454,1.00455 -1.20218,1.74562 -0.0741,1.16923 -0.36229,4.13349 -0.36229,7.83058 -0.10705,1.84442 0.23878,2.84074 1.43272,3.34302 z m -55.88447,2.06674 c 4.03469,0 8.1023,-0.91398 11.39592,-3.21127 5.26979,-3.75473 6.4802,-9.53503 6.4802,-12.68043 0.0329,-6.04379 -2.21496,-10.89365 -10.91835,-17.71967 l -2.03381,-1.60564 c -7.0154,-5.54151 -8.67868,-7.90468 -8.68692,-11.80762 0.0247,-5.0063 3.56535,-7.83058 8.35756,-7.87175 6.5296,0.0329 8.20111,2.89015 8.57164,3.54888 0.3623,0.61755 0.82341,2.64312 0.88928,3.42536 0.008,0.48581 0.22232,1.49859 1.22687,1.5233 1.19394,-0.22232 1.0869,-1.21864 1.1363,-2.322 0,-4.9816 0.27996,-7.29537 0.29643,-7.77294 0,-0.23879 -0.0659,-0.65049 -0.41171,-0.89751 -0.32112,-0.23056 -0.61755,-0.24703 -0.96338,-0.24703 -0.51874,0 -1.04572,-0.0659 -2.42081,-0.34583 -1.86913,-0.45287 -4.04292,-0.74929 -6.93307,-0.74929 -9.51855,0.008 -15.75172,5.62385 -15.76819,13.82496 -0.0165,5.16275 1.9103,9.97966 9.74911,16.39398 l 3.27715,2.709 c 6.27434,5.22862 8.1517,7.87175 8.1764,12.70514 -0.0247,4.38874 -3.13717,9.08215 -9.81498,9.09038 -4.76751,-0.0247 -9.18096,-1.9103 -10.20198,-6.95777 -0.20585,-0.94691 -0.20585,-1.91853 -0.20585,-2.57725 0,-0.3129 0.0165,-0.59285 -0.17292,-0.94692 -0.20585,-0.37876 -0.68342,-0.51874 -0.97985,-0.49404 -1.00455,0.0823 -1.161,1.00455 -1.20217,1.74562 -0.0823,1.16923 -0.37876,4.13349 -0.37876,7.83058 -0.0988,1.84442 0.23878,2.84074 1.45742,3.34302 l 0.27172,-0.57638 -0.27172,0.57638 c 3.11247,1.5233 6.579,2.06674 10.07847,2.06674 z m -97.72165,-55.40689 c 0.61755,-0.008 1.89383,0.0659 2.3467,0.19762 2.20673,0.56815 2.42905,1.1363 2.6596,3.59828 0.14821,2.30553 0.14821,4.34757 0.14821,15.78466 l 0,12.90275 c 0,7.02364 0,12.83688 -0.3623,15.83407 -0.27995,2.15732 -0.69166,3.34302 -1.61387,3.47477 -0.63402,0.13998 -1.49036,0.26349 -2.06674,0.26349 -0.65873,0 -1.21864,0.55991 -1.21864,1.08689 0.008,1.00455 1.04572,1.22687 1.79502,1.22687 1.15277,0 2.82428,-0.14821 4.24877,-0.14821 1.53976,-0.0741 2.7831,-0.0741 2.92308,-0.0741 1.07043,0 2.81605,0.0741 5.66503,0.22232 2.86544,0.0741 6.89189,0.20586 12.40047,0.20586 0.32113,0.0247 0.63402,0.0412 0.92221,0.0412 2.09145,0 3.23598,-0.51052 3.63122,-2.40435 0.39523,-1.67974 0.96338,-6.53783 0.97985,-7.26242 0,-0.26349 0.008,-0.57639 -0.0741,-0.91398 -0.0412,-0.30466 -0.4364,-0.85634 -0.99632,-0.83164 -0.91398,0.0329 -1.20217,0.88928 -1.30098,1.63034 -0.52698,2.94779 -1.2351,4.06762 -2.90662,4.80045 -1.68797,0.72459 -4.87455,0.774 -6.76838,0.7493 -7.22949,-0.20586 -7.43534,-0.49405 -7.84705,-5.40154 -0.0329,-0.48581 -0.0329,-1.77855 -0.0329,-3.35949 0,-3.15364 0.0329,-7.47651 0.0329,-9.13979 l 0,-6.32375 c 1.51507,0.008 8.43167,0.16468 10.25962,0.35407 2.6843,0.33759 2.95603,1.2351 3.26892,2.10791 0.25526,0.88105 0.25526,1.50683 0.25526,2.2479 0.008,0.47757 0.33759,1.30098 1.15276,1.30098 0.67519,0 1.02926,-0.62579 1.07043,-0.96339 0.0823,-0.39523 0.0741,-0.78223 0.0741,-1.07866 0,-0.44463 0.14822,-3.20304 0.30466,-4.6193 0.20586,-2.41257 0.55992,-3.49123 0.57639,-4.16642 -0.008,-0.28819 -0.0329,-0.55992 -0.21409,-0.81517 -0.18115,-0.2882 -0.54344,-0.42817 -0.78223,-0.41171 -0.87281,0.11528 -1.02926,0.63403 -1.58094,1.17747 -0.40347,0.48581 -1.23511,0.67519 -3.00543,0.80694 -1.52329,0.13998 -9.79028,0.13998 -11.37945,0.13998 0,-0.0247 0,-0.0494 0,-0.0823 l 0,-20.22282 c 0,-0.0576 0,-0.0823 0,-0.11528 1.45743,0.008 8.67869,0.0906 9.75735,0.23056 3.9194,0.48581 4.19113,1.12806 4.6687,2.11615 0.3129,0.69989 0.387,1.9103 0.387,2.3714 0,0.59285 0.26349,1.59741 1.22687,1.59741 1.01279,-0.17292 0.99632,-0.95515 1.1363,-1.32568 0.15645,-1.00456 0.29643,-4.19937 0.37053,-4.89103 0.21409,-2.01734 0.55992,-2.7337 0.59286,-3.5077 -0.0329,-0.34583 0.0329,-1.14453 -0.93869,-1.29275 -0.71636,0.0494 -1.02102,0.39524 -1.13629,0.37054 -0.54345,0.13174 -1.70445,0.27995 -3.0466,0.35406 -1.64681,0.0659 -16.2293,0.0659 -16.72335,0.0659 l -2.95602,-0.13998 c -1.64681,-0.0741 -3.62298,-0.0741 -5.31096,-0.0741 -0.74106,0 -1.78679,0.21408 -1.80325,1.21864 0.0494,0.83987 0.78223,1.07866 1.2104,1.08689 z m -243.036093,21.19443 0,-19.6876 c 0,0 0.09881,-0.0823 0.378766,-0.13998 1.086894,-0.27172 2.618427,-0.34583 3.375959,-0.34583 6.669577,0.0165 9.197429,6.01086 9.238599,11.9723 0.0082,2.84898 -1.053958,5.3439 -2.470214,6.97424 -1.449192,1.59741 -2.009107,1.64681 -6.192002,1.69621 -2.659597,0 -3.919406,-0.22231 -4.347576,-0.28819 0.01647,-0.008 0.01647,-0.008 0.0247,-0.008 -0.0082,0 -0.0082,-0.0329 -0.0082,-0.17292 z m 18.040794,19.99227 c -0.01647,7.87998 -5.895577,9.73264 -9.675004,9.78204 -1.268043,0.008 -4.388746,-0.16468 -6.159066,-1.03749 -2.025575,-1.03749 -1.844426,-1.45742 -2.124383,-5.18745 -0.07411,-1.01278 -0.08234,-10.14434 -0.08234,-15.78466 l 0,-4.04292 c 1.284511,0 4.652236,0.008 5.418002,0.13175 1.77032,0.22232 3.417129,0.4117 5.813236,2.02557 5.368598,3.68886 6.809556,9.85616 6.809556,14.11316 z M 58.014957,583.37643 c 0.601086,0 1.869129,0.0741 2.330235,0.20585 2.206724,0.56815 2.42081,1.14453 2.659597,3.59828 0.148213,2.30553 0.148213,4.34757 0.148213,15.78466 l 0,12.90275 c 0.0082,7.02364 0,12.83688 -0.370532,15.82584 -0.271724,2.16555 -0.683426,3.35125 -1.613873,3.483 -0.634022,0.13998 -1.490363,0.26349 -2.058512,0.26349 -0.658723,0 -1.218638,0.55991 -1.218638,1.09513 0.01647,0.99631 1.053957,1.21863 1.81149,1.21863 1.136298,0 2.816043,-0.14821 4.240533,-0.13997 1.539767,-0.0823 2.774873,-0.0823 2.914852,-0.0823 0.247022,0 2.313767,0.0741 4.413449,0.22232 2.132617,0.0741 4.462852,0.20586 5.319193,0.20586 12.787473,-0.008 19.251199,-8.42343 19.267667,-16.59161 -0.0247,-8.48106 -6.694279,-13.72615 -12.128749,-15.74349 3.203043,-3.37596 6.356683,-7.06481 6.356683,-12.91099 -0.01647,-3.9441 -2.972491,-11.62647 -15.257687,-11.64294 -3.392426,0 -6.24964,0.22232 -7.970556,0.22232 -0.30466,0 -4.956895,-0.22232 -8.266982,-0.22232 -0.749298,0.008 -1.786788,0.22232 -1.803256,1.23511 0.04117,0.83164 0.790469,1.07043 1.226873,1.07043 z m 230.355663,50.03829 c 3.91117,3.82883 4.55343,4.70988 5.76383,4.84162 0.0247,0.0165 0.0576,0.0165 0.0823,0.0165 0.52698,0 1.06219,-0.68343 1.06219,-1.33392 0.10705,-0.79046 0.13998,-2.08321 0.13998,-4.51225 l 0.15645,-42.94055 c 0.0659,-4.51226 0.22232,-5.45917 2.19026,-5.90381 0.85634,-0.20585 1.27627,-0.19762 1.6221,-0.19762 0.64226,-0.008 1.43273,-0.34583 1.44096,-1.14453 -0.15645,-1.21041 -1.24334,-1.15277 -1.94323,-1.161 -3.03013,0 -5.49211,0.22232 -6.22494,0.21408 -0.74107,0 -4.28994,-0.21408 -7.60003,-0.21408 -0.774,0.0412 -1.88559,-0.0988 -2.08321,1.161 0,0.17291 0,0.48581 0.25526,0.774 0.26348,0.29642 0.62578,0.37053 0.95514,0.37053 0.54345,-0.008 2.21496,0.0576 3.4336,0.34583 1.84443,0.50228 2.23143,1.50683 2.36317,6.35668 l 0.76577,35.56285 c -3.17834,-3.42537 -10.07847,-11.11596 -16.41045,-17.90905 -11.24771,-12.07935 -22.14959,-23.90344 -23.22825,-25.12208 -0.83164,-0.70812 -1.69621,-2.33846 -3.04659,-2.56078 -0.6752,-0.0247 -1.15277,0.64225 -1.23511,1.24334 -0.14821,0.66696 -0.19762,1.61387 -0.19762,3.05483 l -0.0741,41.9854 c 0.0247,6.75191 -0.51875,8.48106 -1.72915,8.68691 -1.00456,0.35407 -2.28907,0.41171 -2.82428,0.41171 -0.50228,0 -1.21041,0.39523 -1.21041,1.08689 0.0247,1.1116 1.16924,1.22687 1.79503,1.22687 3.30185,0 6.43079,-0.22232 7.0154,-0.22232 0.58462,0 3.57358,0.22232 7.74824,0.22232 0.83164,0 1.87736,-0.13997 1.95147,-1.22687 0,-0.69166 -0.7246,-1.08689 -1.21864,-1.08689 -0.62579,0 -2.19849,-0.0576 -3.49124,-0.41171 -1.48212,-0.39523 -2.22319,-1.84442 -2.37963,-7.88821 l -0.64226,0.0165 0.64226,-0.0165 -0.90575,-33.35612 c 3.27715,3.65592 10.53134,11.71705 17.93375,19.72877 7.78118,8.37403 18.27135,19.11122 19.12769,19.90169 z m -172.41268,-0.0165 c 5.42623,5.10511 12.97685,5.38507 15.5047,5.3933 l 0.0412,0 c 4.38052,0 10.04554,-0.79046 15.43061,-5.59915 6.10143,-5.4427 6.93307,-14.43428 6.9413,-22.38013 l 0,-7.84705 c 0,-11.43709 0,-13.47913 0.14821,-15.78466 0.23056,-2.55256 0.53521,-3.15364 2.22319,-3.59828 0.84811,-0.14821 1.24335,-0.20585 1.68798,-0.20585 0.42817,0 1.17747,-0.23879 1.21041,-1.07866 0,-0.99632 -1.03749,-1.21864 -1.80326,-1.21864 -2.21496,0 -5.68972,0.22232 -6.1426,0.21408 -0.37876,0.008 -4.43815,-0.21408 -7.74823,-0.21408 -0.75753,0 -1.78679,0.22232 -1.81149,1.21864 0.0494,0.83987 0.7987,1.07866 1.2351,1.07866 0.60109,0 1.86913,0.0823 2.32201,0.20585 2.20672,0.56815 2.4208,1.14453 2.66783,3.59828 0.13997,2.30553 0.13997,4.34757 0.13997,15.78466 l 0,9.16449 c 0.0165,7.50122 -0.89751,13.59441 -4.10055,17.55499 -2.47845,2.98896 -6.72722,5.03924 -10.97598,5.03924 -4.11703,-0.0165 -7.13892,-0.61756 -10.60546,-3.85354 -2.99719,-2.87368 -5.26979,-7.18009 -5.27802,-17.64556 l 0,-10.25962 c 0,-11.43709 0,-13.47913 0.13998,-15.78466 0.22232,-2.56079 0.55168,-3.29362 2.15732,-3.59828 0.89751,-0.14821 1.29274,-0.20585 1.73738,-0.20585 0.44464,0 1.18571,-0.25526 1.22688,-1.07866 -0.008,-0.99632 -1.05396,-1.21864 -1.81149,-1.21864 -2.21496,0 -6.63665,0.22232 -7.2295,0.21408 -0.62578,0.008 -5.11334,-0.21408 -8.40696,-0.21408 -0.76576,0 -1.80325,0.22232 -1.81149,1.21864 0.0412,0.83987 0.79047,1.07866 1.22688,1.07866 0.59285,0 1.87736,0.0823 2.31376,0.20585 2.20673,0.56815 2.43728,1.14453 2.67607,3.59828 0.13998,2.30553 0.13998,4.34757 0.13998,15.78466 l 0,10.69603 c -0.008,10.79483 2.84074,16.18813 6.5543,19.737 z m 100.2001,-1.70444 c -0.28819,2.16555 -0.67519,3.35125 -1.60564,3.483 -0.64225,0.13998 -1.50683,0.26349 -2.06674,0.26349 -0.66696,0 -1.21864,0.57638 -1.21864,1.10336 0.008,0.98808 1.04572,1.2104 1.79502,1.2104 2.22319,0 6.85896,-0.22232 7.16362,-0.22232 0.32113,0 4.9816,0.22232 8.99981,0.22232 0.83164,0 1.76209,-0.27172 1.80326,-1.2104 0,-0.52698 -0.55168,-1.10336 -1.21864,-1.10336 -0.59285,0 -2.21496,-0.13998 -3.20305,-0.27173 -1.79502,-0.27995 -2.03381,-1.32568 -2.31376,-3.46653 -0.35407,-2.99719 -0.3623,-8.81043 -0.3623,-15.83407 l 0,-12.90275 c 0,-11.43709 0,-13.47913 0.16468,-15.78466 0.20585,-2.55256 0.53521,-3.23598 2.17379,-3.59828 0.87281,-0.14821 1.26804,-0.20585 1.71268,-0.19762 0.4364,-0.008 1.19394,-0.26349 1.21864,-1.08689 -0.008,-0.99632 -1.04573,-1.21864 -1.81149,-1.21864 -2.19849,0 -6.84249,0.21408 -7.16362,0.21408 -0.30466,0 -4.94043,-0.21408 -7.37771,-0.21408 -0.75753,0 -1.79502,0.22232 -1.80325,1.21864 0.0329,0.8234 0.78223,1.07866 1.21864,1.08689 0.45287,-0.008 1.38332,0.0576 2.09144,0.26349 1.30098,0.32936 1.8362,1.09513 2.03381,3.53241 0.13998,2.30553 0.13998,4.34757 0.13998,15.78466 l 0,12.90275 c 0,7.02364 0,12.83688 -0.37053,15.82584 z m -45.59191,-37.81074 c -0.0165,5.16275 1.9103,9.97966 9.74088,16.39398 l 3.29361,2.709 c 6.26611,5.22862 8.15171,7.87175 8.17641,12.70514 -0.0412,4.38874 -3.15364,9.08215 -9.82322,9.09038 -4.76751,-0.0247 -9.18096,-1.9103 -10.21021,-6.95777 -0.20585,-0.94691 -0.20585,-1.91853 -0.20585,-2.57725 0,-0.3129 0,-0.59285 -0.17292,-0.93868 -0.19762,-0.387 -0.68342,-0.52698 -0.97162,-0.50228 -1.00455,0.0823 -1.15276,0.99632 -1.21863,1.74562 -0.0659,1.16923 -0.37054,4.13349 -0.37054,7.83058 -0.10704,1.84442 0.24703,2.85721 1.45743,3.34302 3.1207,1.5233 6.57077,2.06674 10.07847,2.06674 4.03468,0 8.11054,-0.91398 11.39592,-3.21127 5.27802,-3.76296 6.48843,-9.53503 6.49666,-12.68043 0.0165,-6.04379 -2.23142,-10.89365 -10.91834,-17.71967 l -2.05028,-1.60564 c -7.01541,-5.54151 -8.65398,-7.90468 -8.66222,-11.80762 0.008,-5.0063 3.54888,-7.83058 8.34109,-7.87175 6.52137,0.0329 8.18464,2.89015 8.58811,3.54888 0.35407,0.61755 0.82341,2.64312 0.87281,3.42536 0.008,0.48581 0.20585,1.49859 1.21864,1.5233 1.1857,-0.22232 1.10336,-1.21041 1.14453,-2.322 0,-4.9816 0.28819,-7.29537 0.28819,-7.77294 0.0247,-0.23879 -0.0576,-0.65049 -0.387,-0.89751 -0.33759,-0.23056 -0.63402,-0.24703 -0.97161,-0.24703 -0.51051,0 -1.05396,-0.0659 -2.42905,-0.34583 -1.86089,-0.45287 -4.04291,-0.74929 -6.93306,-0.74929 -9.51856,0.008 -15.75173,5.62385 -15.7682,13.82496 z m 364.89173,-9.77381 c 6.30728,-0.008 11.84056,1.97617 14.21196,4.02645 1.71268,1.42449 2.86545,4.3064 2.84898,6.9907 0.0165,0.53521 0.0165,0.95515 0.13998,1.35862 0.0741,0.4117 0.58462,0.87281 1.09513,0.83164 1.1116,-0.10705 1.22687,-1.1363 1.28451,-2.14086 0.0741,-1.15276 0.0741,-5.16274 0.22232,-7.56708 0.14821,-2.61843 0.3623,-3.40066 0.37053,-4.14173 0.0412,-0.62579 -0.59285,-1.44096 -1.53153,-1.44096 -2.322,-0.13174 -4.62753,-0.55991 -7.40241,-1.09512 -3.64768,-0.65049 -7.7647,-0.87281 -10.71249,-0.87281 -11.38769,-0.0165 -18.26311,3.49947 -22.74243,8.01996 -6.69428,6.69428 -8.38226,15.42236 -8.3905,20.45337 -0.008,7.04834 1.77856,15.62821 9.05745,22.16605 5.88735,5.31919 13.4956,8.09406 24.54569,8.09406 4.74281,-0.008 10.30079,-0.51051 13.38856,-1.74561 1.35862,-0.50228 1.92677,-1.1363 2.2973,-2.51962 0.7493,-2.64313 1.62211,-8.8763 1.62211,-9.56796 -0.0412,-0.60109 0,-1.57271 -1.14454,-1.74562 -0.88927,-0.0165 -1.28451,0.88928 -1.34215,1.62211 -0.18938,1.21864 -1.1857,4.43815 -2.55255,5.8297 -2.71723,2.80781 -6.80955,3.47477 -12.26873,3.47477 -15.25768,-0.0165 -25.75609,-12.50752 -25.75609,-26.1925 0,-7.41064 1.22687,-13.69322 6.39785,-18.66658 2.44551,-2.37964 6.76015,-5.15452 16.36105,-5.17098 z m 237.22285,47.59278 c -0.30466,2.15732 -0.69166,3.34302 -1.6221,3.46653 -0.65049,0.14822 -1.4986,0.27173 -2.07498,0.27173 -0.66696,0 -1.21864,0.55991 -1.21864,1.08689 0.008,1.00455 1.04572,1.22687 1.79502,1.22687 1.1363,0 2.75017,-0.0741 4.2076,-0.14821 1.44096,0 2.71723,-0.0741 2.96425,-0.0741 2.09969,0 4.35581,0.0741 7.41888,0.22232 3.08777,0.0741 6.90836,0.20586 12.17815,0.20586 0.3376,0.0247 0.65049,0.0412 0.95515,0.0412 2.98073,0 3.87,-0.774 4.24877,-2.46198 0.62579,-2.25613 1.12806,-6.56254 1.1363,-7.51769 0,-0.4117 0,-0.72459 -0.13175,-1.07042 -0.0741,-0.3623 -0.59285,-0.6999 -0.94691,-0.65049 -0.93045,0 -1.27628,0.93044 -1.29275,1.49859 -0.18938,1.25158 -0.90574,3.03837 -1.76208,4.09232 -1.44096,1.80326 -4.46286,1.96794 -8.34933,1.94324 -5.69795,0.008 -7.4024,-0.54345 -8.32462,-1.48213 -0.99631,-0.80694 -1.48212,-5.61562 -1.43272,-16.33635 l 0,-13.05096 c 0,-11.43709 0,-13.47913 0.16468,-15.78466 0.23056,-2.55256 0.50228,-3.20305 2.31377,-3.59828 0.83164,-0.13998 1.83619,-0.20585 2.30553,-0.19762 0.43641,-0.008 1.19394,-0.26349 1.21864,-1.08689 0,-0.99632 -1.05396,-1.21864 -1.81149,-1.21864 -2.20672,0 -7.56709,0.21408 -7.88822,0.21408 -0.32112,0 -4.95689,-0.21408 -8.25051,-0.21408 -0.76577,0 -1.80326,0.21408 -1.81972,1.21864 0.0329,0.83987 0.78223,1.07866 1.22687,1.08689 0.60932,-0.008 1.86913,0.0659 2.322,0.19762 2.21496,0.56815 2.42904,1.14453 2.67607,3.59828 0.13174,2.30553 0.13174,4.34757 0.13174,15.78466 l 0,12.90275 c 0,7.02364 0,12.83688 -0.3376,15.83407 z M 661.51286,583.8293 c 11.18184,0.008 21.55674,9.07392 21.58967,26.39835 -0.0494,20.98035 -13.16624,24.42218 -19.55586,24.49629 -12.7463,-0.0165 -22.70126,-10.61369 -22.7342,-27.43584 0.0494,-15.7929 8.8022,-23.4094 20.70039,-23.4588 z m 0.0741,54.96225 c 17.97492,-0.0412 29.78254,-13.9073 29.80725,-30.61418 -0.0247,-17.42324 -12.65573,-28.09456 -29.37084,-28.11926 -20.59335,0.008 -29.40378,17.15975 -29.43672,29.2885 0.0329,13.42149 8.57164,29.40377 29.00031,29.44494 z m 88.65597,-28.5639 c -0.0412,20.98035 -13.16624,24.42218 -19.53116,24.49629 -12.771,-0.0165 -22.7342,-10.61369 -22.75066,-27.43584 0.0659,-15.7929 8.79396,-23.4094 20.70862,-23.4588 11.18183,0.008 21.5485,9.07392 21.5732,26.39835 z m -50.51587,-0.88104 c 0.0412,13.42149 8.58811,29.40377 29.00031,29.44494 17.97492,-0.0412 29.79078,-13.9073 29.80724,-30.61418 -0.0165,-17.42324 -12.65572,-28.09456 -29.3626,-28.11926 -20.58512,0.008 -29.40378,17.15975 -29.44495,29.2885 z m -95.77018,-27.04884 c 0.0329,0.8234 0.774,1.07866 1.21863,1.08689 0.60932,-0.008 1.8856,0.0659 2.33024,0.19762 2.20672,0.56815 2.42904,1.14453 2.66783,3.59828 0.15645,2.30553 0.15645,4.34757 0.15645,15.78466 l 0,1.34215 -30.62242,0 0,-1.34215 c 0,-11.43709 0,-13.47913 0.15645,-15.78466 0.22232,-2.55256 0.54345,-3.23598 2.18202,-3.59828 0.87281,-0.14821 1.26804,-0.20585 1.71268,-0.19762 0.43641,-0.008 1.1857,-0.26349 1.21041,-1.08689 0,-0.99632 -1.04573,-1.21864 -1.79503,-1.21864 -2.20672,0 -6.85072,0.21408 -7.16362,0.21408 -0.32112,0 -4.96512,-0.21408 -8.26698,-0.21408 -0.74106,0 -1.78678,0.21408 -1.79502,1.21864 0.0247,0.83987 0.78224,1.07866 1.22687,1.08689 0.59286,-0.008 1.8609,0.0659 2.322,0.19762 2.21496,0.56815 2.42081,1.14453 2.6596,3.59828 0.15645,2.30553 0.15645,4.34757 0.15645,15.78466 l 0,12.90275 c 0,7.02364 0,12.83688 -0.37053,15.82584 -0.29643,2.16555 -0.68343,3.35125 -1.60564,3.483 -0.64226,0.13998 -1.51507,0.26349 -2.07498,0.26349 -0.66696,0 -1.21041,0.57638 -1.21041,1.10336 0.008,0.98808 1.03749,1.2104 1.80326,1.2104 2.21496,0 6.83426,-0.22232 7.15538,-0.22232 0.3129,0 4.96513,0.22232 8.98335,0.22232 0.83987,0 1.76208,-0.27172 1.81149,-1.2104 0,-0.54345 -0.55992,-1.10336 -1.21864,-1.10336 -0.59285,0 -2.22319,-0.13998 -3.19481,-0.27173 -1.77855,-0.27995 -2.03381,-1.32568 -2.31377,-3.46653 -0.37053,-2.99719 -0.37053,-8.81043 -0.37053,-15.83407 l 0,-7.49298 30.62242,0 0,7.49298 c 0,7.02364 0,12.83688 -0.3623,15.82584 -0.29643,2.16555 -0.69989,3.35125 -1.63034,3.483 -0.63402,0.13998 -1.48213,0.26349 -2.06675,0.26349 -0.65049,0 -1.2104,0.55991 -1.2104,1.10336 0.0165,0.98808 1.03749,1.2104 1.79502,1.2104 2.21496,0 6.85073,-0.22232 7.17185,-0.22232 0.30466,0 4.9569,0.22232 8.99982,0.22232 0.83163,0 1.75385,-0.27172 1.80325,-1.2104 0,-0.55168 -0.56815,-1.10336 -1.21864,-1.10336 -0.59285,0 -2.22319,-0.13998 -3.20304,-0.27173 -1.79502,-0.27995 -2.03381,-1.30921 -2.30553,-3.46653 -0.37054,-2.99719 -0.37054,-8.81043 -0.37054,-15.83407 l 0,-12.90275 c 0,-11.43709 0,-13.47913 0.14822,-15.78466 0.22232,-2.55256 0.53521,-3.23598 2.18202,-3.59828 0.88104,-0.14821 1.28451,-0.20585 1.71268,-0.19762 0.4364,-0.008 1.19394,-0.24702 1.22687,-1.08689 -0.008,-1.00456 -1.05395,-1.21864 -1.80325,-1.21864 -2.2232,0 -6.8672,0.21408 -7.17186,0.21408 -0.32112,0 -4.95689,-0.21408 -8.25874,-0.21408 -0.7493,0 -1.79503,0.22232 -1.81149,1.21864 z M 57.0845,693.42445 l 745.49402,0 0,-14.22596 -745.49402,0 0,14.22596 z m 611.16381,-180.18562 0.43641,-0.50228 -0.43641,0.50228 c 21.41676,18.61717 48.43266,25.64905 80.50427,25.64905 14.99419,0 32.73033,-1.61387 42.24889,-5.40977 4.05115,-1.5974 5.34389,-3.19481 6.47196,-7.22126 2.36317,-8.1023 5.14627,-28.31688 5.14627,-31.28937 0,-1.90207 -0.49404,-4.13349 -2.7337,-4.19113 -2.2973,-0.0494 -3.11247,1.58917 -3.70532,5.23685 -0.91398,4.08409 -2.98896,9.33741 -7.78941,15.12594 -8.04466,9.74911 -25.30322,12.68867 -36.44388,12.6722 -0.54345,0 -1.07043,-0.0165 -1.55624,-0.0247 -41.17846,-1.07043 -76.97186,-28.81916 -77.08713,-82.40633 0,-0.0906 0,-0.10704 0,-0.19762 0,-22.56128 4.48755,-44.45561 21.26854,-59.89444 10.15258,-9.24684 23.23647,-14.32724 43.43459,-14.34371 21.34264,-0.008 39.44108,6.34021 46.90936,14.30253 5.70619,5.94499 8.69515,13.98965 8.91747,21.09563 0.0247,3.17834 0.44464,5.69796 3.00542,5.77207 2.71724,-0.0329 3.28539,-2.57726 3.4583,-5.99439 0.46934,-4.74281 0.22232,-17.57969 0.69166,-25.27029 0.46111,-8.1764 1.17747,-10.8854 1.17747,-12.90275 0.0494,-1.75385 -1.37508,-3.28538 -4.10055,-3.45829 -6.9166,-0.69166 -14.40958,-2.81605 -23.31882,-3.98528 -10.72896,-1.40802 -19.44058,-2.34671 -33.9325,-2.34671 -34.90412,-0.008 -57.28426,9.41975 -74.21346,24.99033 -22.59422,20.7498 -27.50994,48.54794 -27.50994,64.57962 0,22.80831 6.10966,49.2396 29.15675,69.51182 z m -196.66194,-68.26848 123.21426,0 0,-13.24034 -48.31738,0 0,-59.03811 c 0.11527,-1.58917 0.18938,-1.60564 0.98808,-1.67974 4.61107,0 29.19793,0.46934 33.04323,0.92221 11.64294,1.47389 13.48736,3.99351 15.10124,8.01996 1.11983,2.63489 1.35861,6.58724 1.35861,8.17641 0,2.09968 0.66696,3.93587 2.76664,3.93587 2.13262,0 2.78311,-1.94323 2.98073,-3.11247 0.49404,-2.91485 0.95515,-13.19094 1.1857,-15.49647 0.69166,-10.80307 1.84443,-13.37209 1.8609,-15.28239 0,-1.1363 -0.3623,-2.77487 -2.05852,-2.77487 -1.42449,0.0247 -2.82427,0.75753 -3.85353,0.95514 -1.82796,0.46111 -5.57445,0.93869 -10.00436,1.39979 -4.33111,0.23056 -50.8123,0.23056 -58.28058,0.23056 -6.48843,0 -21.2109,-0.70813 -33.61137,-0.70813 -3.4089,0 -5.69796,0.41993 -5.77207,2.76664 0,2.24789 2.09968,2.77487 4.6193,2.77487 3.21128,0 7.19656,0.23879 8.94217,0.68343 7.47652,1.68798 8.97511,4.82515 9.53503,12.73807 0.46934,7.46004 0.46934,13.98964 0.46934,49.56072 l 0,5.91204 -45.52604,0.0165 0,13.45443 1.35862,0 0,-0.21408 z m -315.38042,-13.10036 -48.31738,0 0,-59.02988 c 0.13175,-1.58917 0.19762,-1.58917 0.97985,-1.67974 4.6193,0 29.20617,0.47757 33.06793,0.93045 11.64294,1.46566 13.47914,3.98527 15.10948,8.00349 1.10336,2.6596 1.35038,6.6037 1.35038,8.18464 0,2.08321 0.64226,3.91941 2.75841,3.93587 2.14908,-0.0165 2.77487,-1.95147 2.98072,-3.10423 0.47757,-2.92309 0.93868,-13.20741 1.1857,-15.51294 0.70813,-10.77837 1.83619,-13.36386 1.8609,-15.26592 0,-1.14454 -0.3623,-2.76664 -2.05851,-2.76664 -1.43273,0.008 -2.82428,0.75753 -3.87824,0.94691 -1.79502,0.44464 -5.53328,0.92221 -9.9632,1.39979 -4.33934,0.22232 -50.837,0.22232 -58.297041,0.22232 -6.488428,0 -21.210902,-0.6999 -33.611374,-0.6999 -3.408895,0 -5.69796,0.43641 -5.788534,2.76664 0.03294,2.21496 2.107915,2.76664 4.644001,2.76664 3.211278,0 7.196556,0.25526 8.93394,0.69166 7.484747,1.67975 8.966876,4.80869 9.543259,12.73807 0.452872,7.43535 0.452872,13.98965 0.452872,49.55249 l 0,5.92028 -45.542506,0 0,13.24034 1.375086,0 0,0.0165 123.214257,0 0,-13.25681 z m 0.6999,87.75846 c -5.83794,2.71723 -15.61175,2.75017 -21.66378,2.75017 -23.8705,-0.23056 -26.68654,-3.0466 -27.33703,-19.01241 -0.0988,-2.2479 -0.11528,-6.1426 -0.11528,-10.63016 0,-8.97511 0.11528,-20.31339 0.11528,-25.61611 l 0,-11.1736 -30.745927,0 0,11.1736 c 0,21.50732 0,40.00099 -1.169234,49.76657 -0.922213,6.80132 -2.140852,11.51943 -6.233173,12.29343 -2.074979,0.44464 -4.825151,0.91398 -8.275216,0.91398 -2.791341,0 -4.39698,0.81517 -4.39698,2.52785 0.06587,2.2726 2.313767,3.00543 5.335662,3.00543 9.353875,0 24.076349,-0.70813 29.41201,-0.70813 13.726158,0 29.395548,1.40802 64.653728,1.40802 0.79047,0 1.55624,0.0165 2.26436,0.0165 6.96601,0 9.53503,-0.81517 10.97599,-6.58724 1.2104,-4.82515 3.04659,-20.64275 3.05483,-26.14309 0,-1.17747 0.008,-2.2726 -0.25526,-3.17834 -0.23055,-0.93045 -1.10336,-1.75386 -2.26436,-1.69622 -2.05851,-0.0576 -2.85721,1.53977 -3.22775,4.04292 -1.64681,9.55149 -4.29817,14.10492 -10.12787,16.84686 z m 195.14688,13.19917 0.008,0 c 10.13611,4.49579 20.75803,6.13436 34.32774,6.13436 12.43341,0 25.64905,-2.11614 37.46491,-9.69147 17.028,-11.13243 22.28132,-27.53465 22.25662,-41.26903 0.0247,-22.47071 -10.49841,-38.41183 -38.53533,-60.17441 l -6.5543,-4.90749 c -19.35801,-14.76364 -24.46312,-22.69303 -24.47136,-33.16674 0.0329,-13.67675 10.09494,-23.40115 27.13118,-23.43409 14.9448,0.0165 21.43323,6.84249 24.89976,11.21477 4.79221,5.89558 5.93675,13.09213 5.93675,15.0189 0,2.81604 0.81517,4.87455 2.98072,4.87455 2.59372,-0.0906 3.25245,-2.62666 3.25245,-7.67413 0,-18.23841 0.91398,-24.94092 0.91398,-28.08633 0.0247,-2.05851 -1.65505,-3.03012 -3.77943,-3.45006 -6.06849,-1.64681 -15.94111,-3.98528 -31.18233,-3.98528 -32.67269,0.0412 -54.53408,18.72422 -54.57526,44.87555 -0.0247,19.17709 9.05746,35.80986 34.79708,55.97504 l 10.7372,8.40696 c 19.28413,14.95303 22.59422,25.60788 22.61069,36.905 -0.0165,12.0464 -9.93026,26.00311 -30.60595,26.01958 -14.28607,-0.0412 -27.68286,-6.15907 -32.73857,-23.15414 -1.15276,-3.91117 -2.08321,-8.82689 -2.08321,-11.74175 0,-1.79502 -0.23879,-4.57813 -2.98896,-4.644 -2.67606,0.18939 -3.19481,3.22775 -3.46653,6.69428 -0.23055,3.75473 -1.17747,17.80201 -1.17747,30.69652 -0.10704,5.13805 0.97162,6.99071 4.84162,8.56341 z m -140.19286,0 c 10.14434,4.49579 20.76626,6.15083 34.3442,6.15083 12.44988,0 25.64905,-2.13261 37.47314,-9.70794 17.01978,-11.13243 22.26486,-27.53465 22.24016,-41.26903 0.0247,-22.47071 -10.4737,-38.41183 -38.5271,-60.17441 l -6.54606,-4.90749 c -19.35001,-14.76364 -24.46335,-22.69303 -24.47982,-33.16674 0.0329,-13.67675 10.07847,-23.38469 27.12294,-23.43409 14.9448,0.0165 21.44969,6.84249 24.89976,11.21477 4.80045,5.89558 5.96145,13.09213 5.93674,15.0189 0.008,2.82428 0.81518,4.87455 2.9972,4.88279 2.58549,-0.0988 3.22774,-2.6349 3.22774,-7.68237 0,-18.23841 0.92222,-24.94092 0.93868,-28.08633 0.0247,-2.05851 -1.67974,-3.03012 -3.77942,-3.45006 -6.06026,-1.64681 -15.95758,-3.98528 -31.20704,-3.98528 -32.67269,0.0576 -54.50938,18.72422 -54.55878,44.89202 -0.0329,19.16062 9.04098,35.79339 34.78884,55.9421 l 10.7372,8.42343 c 19.28413,14.95303 22.61069,25.60788 22.61892,36.905 -0.008,12.0464 -9.93026,26.00311 -30.61418,26.01958 -14.31077,-0.0165 -27.68286,-6.15907 -32.73857,-23.15414 -1.16923,-3.9194 -2.09144,-8.82689 -2.09144,-11.74175 0,-1.79502 -0.21409,-4.57813 -2.9972,-4.63576 -2.64313,0.18115 -3.18657,3.21951 -3.45006,6.70251 -0.23056,3.73826 -1.16924,17.78554 -1.16924,30.68005 -0.11527,5.13805 0.96339,7.00718 4.83339,8.56341 z m 383.64065,-13.37209 c -5.84617,2.74194 -15.60352,2.76664 -21.66377,2.75841 -23.8705,-0.20586 -26.71125,-3.03837 -27.3535,-18.98771 -0.0988,-2.26437 -0.10705,-6.17554 -0.10705,-10.65486 0,-8.96687 0.10705,-20.31339 0.10705,-25.60788 l 0,-11.16537 -30.72946,0 0,11.16537 c 0,21.5238 0,40.0257 -1.16924,49.75834 -0.93868,6.82602 -2.13261,11.54413 -6.2414,12.29343 -2.09145,0.45287 -4.84162,0.91398 -8.27522,0.91398 -2.80781,0 -4.38051,0.8481 -4.40521,2.52785 0.0659,2.28906 2.33847,3.02189 5.35213,3.02189 9.34564,0 24.06811,-0.70812 29.40377,-0.70812 13.72616,0 29.40378,1.39155 64.66196,1.39155 0.79047,0.0165 1.54801,0.0494 2.26437,0.0494 6.95777,0 9.53502,-0.8234 10.96775,-6.62017 1.1857,-4.80868 3.05483,-20.63452 3.05483,-26.11839 0,-1.17747 0.0165,-2.2726 -0.26349,-3.19481 -0.22232,-0.93045 -1.0869,-1.74562 -2.25613,-1.68798 -2.04204,-0.0576 -2.84898,1.53977 -3.22775,4.05938 -1.63034,9.51856 -4.28993,14.10492 -10.11964,16.80569"
       id="path148"
       style="fill:#000000;fill-opacity:1;fill-rule:nonzero;stroke:none" />
  </g>
</svg>
